<svg width="20" height="20" viewBox="0 0 20 20" fill="none" xmlns="http://www.w3.org/2000/svg">
<path d="M2.81983 13.3585H6.93736L6.93736 16.1824C6.93736 17.5372 7.34136 18.5207 8.1412 19.1043C9.39808 20.0265 11.1079 19.5083 11.1814 19.4838C11.4711 19.394 11.6711 19.1206 11.6711 18.8145L11.6711 15.4071C11.6711 12.8851 14.6378 12.0078 14.7643 11.9751C14.7725 11.971 14.7807 11.971 14.7847 11.967L15.1234 11.8609C15.507 12.224 16.0212 12.4444 16.5844 12.4444H17.8698C19.0451 12.4485 20 11.4936 20 10.3183V2.98919C20 1.81392 19.0451 0.859016 17.8698 0.859016H16.5844C16.0416 0.859016 15.5438 1.06306 15.1683 1.40176C14.6297 0.761076 13.8217 0.348915 12.9198 0.348915L4.57866 0.348915C2.64436 0.348915 1.35891 1.40992 1.13446 3.18507L0.0979385 9.69395L0.0408077 10.0449C0.0163231 10.2081 0 10.3754 0 10.5428C0.00407982 12.0935 1.26913 13.3585 2.81983 13.3585ZM15.8539 2.98511C15.8539 2.58111 16.1804 2.25465 16.5844 2.25465H17.8698C18.2738 2.25465 18.6003 2.58111 18.6003 2.98511V10.3183C18.6003 10.7223 18.2738 11.0488 17.8698 11.0488H16.5844C16.1804 11.0488 15.8539 10.7223 15.8539 10.3183L15.8539 2.98511ZM1.4242 10.2612L2.51785 3.38911C2.51785 3.38095 2.52193 3.37279 2.52193 3.36463C2.5709 2.96471 2.71781 1.74455 4.57866 1.74455L12.9198 1.74455C13.7645 1.74455 14.4542 2.4342 14.4542 3.27893L14.4542 10.3183C14.4542 10.4122 14.4624 10.506 14.4746 10.5999L14.3726 10.6325C14.0747 10.7182 10.2714 11.8853 10.2714 15.4111L10.2714 18.2391C9.86737 18.28 9.33687 18.2514 8.96552 17.9739C8.54928 17.6637 8.33707 17.0639 8.33707 16.1824L8.33707 12.6566C8.33707 12.2689 8.02285 11.9547 7.63518 11.9547H2.81983C2.03632 11.9547 1.40379 11.3181 1.40379 10.5387C1.40379 10.4489 1.41195 10.355 1.4242 10.2612Z" fill="#979797"/>
</svg>
