<svg width="20" height="20" viewBox="0 0 20 20" fill="none" xmlns="http://www.w3.org/2000/svg">
<path d="M17.1802 6.64149H13.0626V3.81758C13.0626 2.46276 12.6586 1.47928 11.8588 0.895728C10.6019 -0.0265325 8.89206 0.491729 8.81861 0.516214C8.52887 0.605992 8.32891 0.879405 8.32891 1.18547V4.59293C8.32891 7.11487 5.36217 7.99224 5.23567 8.02489C5.2275 8.02897 5.21934 8.02897 5.21526 8.03305L4.87656 8.13915C4.49296 7.77596 3.97878 7.55559 3.41563 7.55559H2.13018C0.954907 7.55151 0 8.50642 0 9.68169V17.0108C0 18.1861 0.954907 19.141 2.13018 19.141H3.41563C3.95838 19.141 4.45623 18.9369 4.83167 18.5982C5.37033 19.2389 6.17833 19.6511 7.08019 19.6511H15.4213C17.3556 19.6511 18.6411 18.5901 18.8655 16.8149L19.9021 10.3061L19.9592 9.9551C19.9837 9.79187 20 9.62456 20 9.45725C19.9959 7.90654 18.7309 6.64149 17.1802 6.64149ZM4.14609 17.0149C4.14609 17.4189 3.81963 17.7453 3.41563 17.7453H2.13018C1.72618 17.7453 1.39971 17.4189 1.39971 17.0149V9.68169C1.39971 9.27769 1.72618 8.95123 2.13018 8.95123H3.41563C3.81963 8.95123 4.14609 9.27769 4.14609 9.68169V17.0149ZM18.5758 9.73882L17.4821 16.6109C17.4821 16.6191 17.4781 16.6272 17.4781 16.6354C17.4291 17.0353 17.2822 18.2555 15.4213 18.2555H7.08019C6.23546 18.2555 5.54581 17.5658 5.54581 16.7211V9.68169C5.54581 9.58783 5.53765 9.49397 5.5254 9.40012L5.62742 9.36747C5.92532 9.28177 9.72863 8.11466 9.72863 4.58885V1.76086C10.1326 1.72005 10.6631 1.74862 11.0345 2.02611C11.4507 2.33625 11.6629 2.93613 11.6629 3.81758V7.34339C11.6629 7.73107 11.9771 8.04529 12.3648 8.04529H17.1802C17.9637 8.04529 18.5962 8.6819 18.5962 9.46133C18.5962 9.55111 18.588 9.64496 18.5758 9.73882Z" fill="#979797"/>
</svg>
