<svg width="10" height="8" viewBox="0 0 10 8" fill="none" xmlns="http://www.w3.org/2000/svg">
<path d="M9.47346 0.806574C9.41149 0.744088 9.33775 0.694492 9.25651 0.660646C9.17527 0.6268 9.08814 0.609375 9.00013 0.609375C8.91212 0.609375 8.82498 0.6268 8.74374 0.660646C8.6625 0.694492 8.58877 0.744088 8.5268 0.806574L3.56013 5.77991L1.47346 3.68657C1.40911 3.62441 1.33315 3.57554 1.24992 3.54274C1.16668 3.50993 1.0778 3.49385 0.988344 3.49539C0.89889 3.49694 0.810617 3.51609 0.728565 3.55176C0.646513 3.58742 0.572288 3.63889 0.510129 3.70324C0.44797 3.76759 0.399094 3.84355 0.366292 3.92679C0.333489 4.01002 0.317402 4.09891 0.31895 4.18836C0.320497 4.27781 0.339649 4.36609 0.375311 4.44814C0.410974 4.53019 0.462448 4.60441 0.526796 4.66657L3.0868 7.22657C3.14877 7.28906 3.22251 7.33866 3.30374 7.3725C3.38498 7.40635 3.47212 7.42377 3.56013 7.42377C3.64814 7.42377 3.73527 7.40635 3.81651 7.3725C3.89775 7.33866 3.97149 7.28906 4.03346 7.22657L9.47346 1.78657C9.54113 1.72415 9.59514 1.64838 9.63208 1.56404C9.66901 1.47971 9.68808 1.38864 9.68808 1.29657C9.68808 1.20451 9.66901 1.11344 9.63208 1.0291C9.59514 0.94477 9.54113 0.869002 9.47346 0.806574Z" fill="#221874"/>
</svg>
